# xmcd
#
# Track frame offsets: 
#        150
#        14641
#        28966
#        44148
#        56497
#        70088
#        83893
#        97594
#        112204
#        123528
#        136056
#        147803
#        160162
#        172580
#        187661
#        202560
#        217687
#        233424
#        248676
#        261731
#        276804
#        292262
#        305027
#
# Disc length: 4252 seconds
#
# Revision: 0
# Processed by: cddbd v1.5.2PL0 Copyright (c) Steve Scherf et al.
# Submitted via: ExactAudioCopyFreeDBPlugin 1.0
#
DISCID=44109a17
DTITLE=Various Artist - Territory Singers Vol. 1 (1922-1928)
DYEAR=1996
DGENRE=Blues
TTITLE0=Roberta Dudley - Krooked Blues
TTITLE1=Roberta Dudley - When You're Alone Blues
TTITLE2=Ruth Lee - Maybe Someday
TTITLE3=Ruth Lee - That Sweet Something Dear
TTITLE4=Ada Brown - Ill Natured Blues
TTITLE5=Ada Brown - Evil Mama Blues
TTITLE6=Ada Brown - Break O'Day Blues
TTITLE7=Bertha Henderson - Discouraged Blues
TTITLE8=Bertha Henderson - The Jamboree Blues
TTITLE9=Missouri Anderson - Gamblin' George Blues
TTITLE10=Missouri Anderson - Somebody Else's Blues
TTITLE11=Jeanette James - Downhearted Mama
TTITLE12=Jeanette James - What's That Thing
TTITLE13=Sadie McKinney - Rock Away
TTITLE14=Sadie McKinney - Rock Away
TTITLE15=Sadie McKinney - Brownskin Flapper
TTITLE16=Arah "Baby" Moore - Everybody Have the Blues Sometime
TTITLE17=Arah "Baby" Moore - Drop Down-Blues
TTITLE18=Ben Norsingle - Black Cat Blues
TTITLE19=Ben Norsingle - Motherless Blues
TTITLE20=Ben Norsingle - Red River Bottom Blues
TTITLE21=Ben Norsingle - Rover's Blues
TTITLE22=Emma Wright - Lonesome Trail Blues
EXTD=
EXTT0=
EXTT1=
EXTT2=
EXTT3=
EXTT4=
EXTT5=
EXTT6=
EXTT7=
EXTT8=
EXTT9=
EXTT10=
EXTT11=
EXTT12=
EXTT13=
EXTT14=
EXTT15=
EXTT16=
EXTT17=
EXTT18=
EXTT19=
EXTT20=
EXTT21=
EXTT22=
PLAYORDER=
